<svg width="87" height="27" viewBox="0 0 87 27" fill="none" xmlns="http://www.w3.org/2000/svg">
<path d="M12.6943 0.366212C14.0116 0.366212 14.9773 2.48024 16.166 2.86448C17.3979 3.2628 19.4249 2.13135 20.4504 2.87425C21.4863 3.62462 21.0278 5.89815 21.7813 6.92902C22.5276 7.94982 24.8457 8.21422 25.2458 9.44051C25.6315 10.6237 23.925 12.1885 23.925 13.4999C23.925 14.8112 25.6315 16.3761 25.2455 17.5592C24.8457 18.7855 22.5276 19.0499 21.781 20.0707C21.0272 21.1016 21.486 23.3757 20.4501 24.1255C19.4246 24.8684 17.3976 23.7369 16.1657 24.1353C14.9773 24.5195 14.0116 26.6335 12.6943 26.6335C11.3769 26.6335 10.4112 24.5195 9.22254 24.1353C7.99063 23.7369 5.96361 24.8684 4.93812 24.1255C3.90224 23.3751 4.36071 21.1016 3.60718 20.0707C2.86087 19.0499 0.542843 18.7855 0.142694 17.5592C-0.243019 16.3761 1.46353 14.8112 1.46353 13.4999C1.46353 12.1885 -0.243018 10.6237 0.142983 9.44051C0.542843 8.21422 2.86088 7.94982 3.60747 6.92902C4.36129 5.89815 3.90253 3.62405 4.93841 2.87425C5.9639 2.13135 7.99092 3.2628 9.22283 2.86448C10.4112 2.48024 11.3769 0.366212 12.6943 0.366212Z" fill="url(#paint0_linear_440_689)"/>
<path d="M12.4733 7.30487L8.91963 14.057C8.88067 14.1311 8.86131 14.2142 8.86344 14.2981C8.86557 14.382 8.88911 14.4639 8.93179 14.5359C8.97447 14.6079 9.03483 14.6676 9.10703 14.7091C9.17923 14.7506 9.26083 14.7726 9.3439 14.7729H11.2119C11.2752 14.7729 11.3379 14.7854 11.3964 14.8099C11.4549 14.8344 11.5081 14.8702 11.5529 14.9155C11.5977 14.9607 11.6332 15.0144 11.6575 15.0735C11.6817 15.1326 11.6942 15.196 11.6942 15.2599V19.3163C11.6942 19.8178 12.3539 19.9921 12.5967 19.5544L16.3068 12.867C16.3479 12.7929 16.369 12.7092 16.3682 12.6243C16.3674 12.5394 16.3446 12.4562 16.3022 12.3829C16.2597 12.3096 16.199 12.2488 16.1261 12.2065C16.0533 12.1642 15.9707 12.1419 15.8867 12.1418L13.8616 12.1396C13.7339 12.1394 13.6115 12.088 13.5212 11.9967C13.4309 11.9053 13.3802 11.7816 13.3801 11.6525V7.53373C13.3809 7.02614 12.709 6.85703 12.4733 7.30487Z" fill="white"/>
<path d="M41.3114 8.37668H34.3494V11.0993H40.6536V13.5296H34.3494V18.4999H31.645V5.94638H41.3114V8.37668ZM51.8672 9.05278V18.4999H49.2176V17.3304C48.9252 17.7568 48.5293 18.0979 48.0298 18.3537C47.5304 18.5973 46.9761 18.7192 46.367 18.7192C45.6848 18.7192 45.0757 18.5669 44.5397 18.2623C44.0159 17.9456 43.6017 17.5131 43.2972 16.965C43.0048 16.4046 42.8586 15.7711 42.8586 15.0646V9.05278H45.4351V14.4981C45.4351 15.0828 45.5995 15.5579 45.9285 15.9234C46.2574 16.2889 46.6898 16.4716 47.2258 16.4716C47.7862 16.4716 48.2552 16.2949 48.6329 15.9417C49.0227 15.5884 49.2176 15.1559 49.2176 14.6443V9.05278H51.8672ZM58.3308 16.6543C58.7571 16.6543 59.1957 16.569 59.6464 16.3985C60.0972 16.2279 60.4748 16.0026 60.7793 15.7224L62.2777 17.2573C61.8635 17.6959 61.291 18.0491 60.5601 18.3171C59.8413 18.5852 59.1287 18.7192 58.4221 18.7192C57.4963 18.7192 56.6436 18.506 55.8639 18.0796C55.0965 17.6532 54.4874 17.0624 54.0366 16.3071C53.5859 15.5518 53.3605 14.6991 53.3605 13.7489C53.3605 12.8109 53.5737 11.9704 54.0001 11.2273C54.4386 10.4842 55.0295 9.89942 55.7726 9.47306C56.5278 9.04669 57.3623 8.8335 58.276 8.8335C59.2505 8.8335 60.0972 9.05887 60.8159 9.5096C61.5346 9.96033 62.0828 10.6121 62.4605 11.4648C62.8381 12.3175 63.0269 13.3226 63.0269 14.4798H55.9005C56.0223 15.1377 56.2964 15.6676 56.7228 16.0696C57.1613 16.4594 57.6973 16.6543 58.3308 16.6543ZM58.2942 10.8983C57.7095 10.8983 57.2039 11.0811 56.7776 11.4465C56.3512 11.7998 56.0649 12.281 55.9187 12.8901H60.4687C60.3591 12.281 60.1154 11.7998 59.7378 11.4465C59.3601 11.0811 58.879 10.8983 58.2942 10.8983ZM64.5467 5.72711H67.2146V18.4999H64.5467V5.72711ZM73.7842 16.6543C74.2106 16.6543 74.6492 16.569 75.0999 16.3985C75.5506 16.2279 75.9283 16.0026 76.2328 15.7224L77.7312 17.2573C77.317 17.6959 76.7444 18.0491 76.0135 18.3171C75.2948 18.5852 74.5822 18.7192 73.8756 18.7192C72.9498 18.7192 72.097 18.506 71.3174 18.0796C70.5499 17.6532 69.9408 17.0624 69.4901 16.3071C69.0394 15.5518 68.814 14.6991 68.814 13.7489C68.814 12.8109 69.0272 11.9704 69.4536 11.2273C69.8921 10.4842 70.4829 9.89942 71.226 9.47306C71.9813 9.04669 72.8158 8.8335 73.7294 8.8335C74.704 8.8335 75.5506 9.05887 76.2694 9.5096C76.9881 9.96033 77.5363 10.6121 77.9139 11.4648C78.2916 12.3175 78.4804 13.3226 78.4804 14.4798H71.3539C71.4758 15.1377 71.7498 15.6676 72.1762 16.0696C72.6148 16.4594 73.1508 16.6543 73.7842 16.6543ZM73.7477 10.8983C73.163 10.8983 72.6574 11.0811 72.231 11.4465C71.8047 11.7998 71.5184 12.281 71.3722 12.8901H75.9222C75.8125 12.281 75.5689 11.7998 75.1912 11.4465C74.8136 11.0811 74.3324 10.8983 73.7477 10.8983ZM82.5584 10.8253C82.8751 10.204 83.3137 9.7167 83.874 9.36342C84.4466 9.01014 85.0861 8.8335 85.7927 8.8335V11.0811C84.8059 11.0811 84.0202 11.343 83.4355 11.8668C82.8507 12.3906 82.5584 13.0972 82.5584 13.9865V18.4999H79.8905V9.05278H82.5584V10.8253Z" fill="#0D0543"/>
<defs>
<linearGradient id="paint0_linear_440_689" x1="12.6943" y1="0.366211" x2="12.6943" y2="26.6335" gradientUnits="userSpaceOnUse">
<stop stop-color="#00FBFF"/>
<stop offset="0.9999" stop-color="#10DCE8"/>
<stop offset="1" stop-color="#09C9E3"/>
</linearGradient>
</defs>
</svg>
